<svg xmlns="http://www.w3.org/2000/svg" width="78.44" height="78.44" viewBox="0 0 78.44 78.44">
  <path id="Icon_simple-javascript" data-name="Icon simple-javascript" d="M0,0H78.44V78.44H0ZM72.014,59.732c-.572-3.579-2.9-6.586-9.815-9.39-2.405-1.128-5.079-1.912-5.873-3.726a3.859,3.859,0,0,1-.15-2.3c.49-2.111,2.991-2.745,4.952-2.157a5.317,5.317,0,0,1,3.19,2.942c3.379-2.209,3.379-2.209,5.736-3.677a13.49,13.49,0,0,0-1.915-2.549c-2.059-2.3-4.8-3.481-9.262-3.379l-2.3.291a10.536,10.536,0,0,0-5.589,3.285c-3.726,4.219-2.651,11.573,1.86,14.613,4.461,3.334,10.985,4.066,11.818,7.207.784,3.824-2.843,5.05-6.426,4.608-2.651-.588-4.118-1.915-5.736-4.366l-5.981,3.435a13.217,13.217,0,0,0,2.647,3.625c5.687,5.739,19.9,5.445,22.457-3.281a11.062,11.062,0,0,0,.242-5.393l.15.219ZM42.655,36.053H35.308c0,6.334-.029,12.629-.029,18.973,0,4.027.206,7.723-.451,8.86-1.079,2.252-3.857,1.964-5.118,1.569A6.306,6.306,0,0,1,27,62.661a2.8,2.8,0,0,0-.415-.641L20.617,65.7a11.56,11.56,0,0,0,4.327,4.958,14.384,14.384,0,0,0,10.482,1.324,9.18,9.18,0,0,0,5.919-4.612c1.667-3.04,1.314-6.765,1.3-10.936.039-6.713,0-13.43,0-20.2l.013-.183Z" fill="#2453f2"/>
</svg>
