<svg xmlns="http://www.w3.org/2000/svg" width="26.237" height="25.025" viewBox="0 0 26.237 25.025">
  <g id="Icon_feather-linkedin" data-name="Icon feather-linkedin" transform="translate(1 1)">
    <path id="Path_1" data-name="Path 1" d="M22.271,12a7.271,7.271,0,0,1,7.271,7.271v8.483H24.695V19.271a2.424,2.424,0,0,0-4.847,0v8.483H15V19.271A7.271,7.271,0,0,1,22.271,12Z" transform="translate(-5.305 -4.729)" fill="none" stroke="#71808e" stroke-linecap="round" stroke-linejoin="round" stroke-width="2"/>
    <path id="Path_2" data-name="Path 2" d="M3,13.5H7.847V28.042H3Z" transform="translate(-3 -5.017)" fill="none" stroke="#71808e" stroke-linecap="round" stroke-linejoin="round" stroke-width="2"/>
    <path id="Path_3" data-name="Path 3" d="M7.847,5.424A2.424,2.424,0,1,1,5.424,3,2.424,2.424,0,0,1,7.847,5.424Z" transform="translate(-3 -3)" fill="none" stroke="#71808e" stroke-linecap="round" stroke-linejoin="round" stroke-width="2"/>
  </g>
</svg>
