<svg xmlns="http://www.w3.org/2000/svg" width="15.922" height="15.176" viewBox="0 0 15.922 15.176">
  <g id="Icon_feather-linkedin" data-name="Icon feather-linkedin" transform="translate(0.5 0.5)">
    <path id="Path_1" data-name="Path 1" d="M19.477,12a4.477,4.477,0,0,1,4.477,4.477V21.7H20.969V16.477a1.492,1.492,0,0,0-2.984,0V21.7H15V16.477A4.477,4.477,0,0,1,19.477,12Z" transform="translate(-9.031 -7.523)" fill="none" stroke="#fff" stroke-linecap="round" stroke-linejoin="round" stroke-width="1"/>
    <path id="Path_2" data-name="Path 2" d="M3,13.5H5.984v8.953H3Z" transform="translate(-3 -8.277)" fill="none" stroke="#fff" stroke-linecap="round" stroke-linejoin="round" stroke-width="1"/>
    <path id="Path_3" data-name="Path 3" d="M5.984,4.492A1.492,1.492,0,1,1,4.492,3,1.492,1.492,0,0,1,5.984,4.492Z" transform="translate(-3 -3)" fill="none" stroke="#fff" stroke-linecap="round" stroke-linejoin="round" stroke-width="1"/>
  </g>
</svg>
