<svg xmlns="http://www.w3.org/2000/svg" width="74" height="74" viewBox="0 0 74 74">
  <g id="Group_30" data-name="Group 30" transform="translate(-6967 -757)">
    <rect id="Rectangle_17" data-name="Rectangle 17" width="74" height="74" transform="translate(6967 757)" fill="#fff"/>
    <path id="Icon_simple-mongodb" data-name="Icon simple-mongodb" d="M39.673,26.805C36.116,11.147,27.726,6,26.825,4.033A25.306,25.306,0,0,1,24.76,0c-.006.054-.011.087-.014.138V.175h0c-.006.042-.008.07-.011.11V.327h-.006c0,.028-.006.051-.006.073V.473h-.008a.535.535,0,0,1-.008.07V.6H24.7a.2.2,0,0,1-.006.059V.718h-.006c0,.028,0,.062-.006.09V.814c-.008.048-.017.1-.025.141V.977h-.006a.149.149,0,0,0-.008.034v.048h-.008v.062H24.62v.051h-.014v.059h-.011v.054h-.011v.048h-.017v.039h-.011v.051h-.011v.039h-.014V1.5h-.008v.042H24.51a.017.017,0,0,0,0,.011V1.58H24.5a.036.036,0,0,0,0,.017v.017H24.49a.124.124,0,0,0-.006.028c-.008.02-.02.039-.028.059v.006a.085.085,0,0,0-.014.02v.023h-.011v.023h-.014v.023h-.008v.028h-.017v.039H24.38v.011h-.011V1.9h-.011v.031h-.011v.023h-.017V1.98h-.011V2H24.3v.023H24.3v.028h-.014v.023H24.27v.017h-.011v.023h-.017V2.14h-.011v.017h-.014V2.18h-.011v.031h-.014v.011h-.008v.023h-.017v.011h-.011v.028h-.011V2.3h-.011v.023h-.014v.017H24.11l-.006.011v.011H24.1c0,.006-.006.006-.006.011v0h0a.045.045,0,0,1-.011.02V2.4h0a.528.528,0,0,0-.034.051v0a.127.127,0,0,0-.025.028v.006h0s-.008.006-.008.008V2.5H24l-.008.008v0h0s-.006.006-.008.011v.011h-.008l-.006.006v.006h-.006c0,.006-.006.006-.006.008v.008h-.011s0,.006-.006.008v.017H23.93V2.6h-.011v.017h-.011v.023h-.014V2.619h-.014V2.63h-.011v.017h-.014V2.67h-.014v.011h-.011V2.7h-.011v.011h-.011v.023h-.017v.011h-.011V2.76h-.014v.011h-.011v.014h-.014v.028h-.006v.011h-.017v.014H23.7v.006h-.011v.011h-.014v.028h-.011V2.9h-.014v.011h-.011v.017h-.014v.011h-.014v.011H23.6v.011h-.011v.028H23.58V3h-.017v.011h-.011v.011h-.014v.017h-.011V3.05h-.014v.02H23.5v.011h-.017V3.1h-.006v.011h-.011V3.12h-.014v.011h-.011v.017h-.014V3.16H23.42a.009.009,0,0,0,0,.006v.006h-.006l-.011.011a.052.052,0,0,1-.011.008v.017h-.011v.014h-.011v.011h-.011v.011h-.008l-.008.008v.008h-.006l-.006.006v.008h-.006a.282.282,0,0,1-.039.045l-.034.028a1.031,1.031,0,0,0-.11.09.593.593,0,0,0-.062.048v0h0l-.138.11v0c-.068.056-.132.11-.208.175v0h-.006c-.161.132-.33.282-.524.448v0h0c-.476.417-1.042.952-1.676,1.6l-.042.042-.011.011C16.635,9.84,10.6,18.1,9.964,31.441a29.194,29.194,0,0,0,.017,3.222v.025A30.684,30.684,0,0,0,14,48.083v0a35.276,35.276,0,0,0,2.608,3.957v0a36.039,36.039,0,0,0,7.08,7.114c1.242,2.881,1.127,7.826,1.127,7.826l1.814.605a33.777,33.777,0,0,1,.149-7.1,4.388,4.388,0,0,1,.983-1.864,23.6,23.6,0,0,0,2.245-1.817c.051-.054.079-.1.124-.152,4.284-3.994,12.285-13.828,9.542-29.85Z" transform="translate(6978.073 760)" fill="#2453f2"/>
  </g>
</svg>
