<svg id="Icon_ionic-logo-nodejs" data-name="Icon ionic-logo-nodejs" xmlns="http://www.w3.org/2000/svg" width="72.641" height="84.748" viewBox="0 0 72.641 84.748">
  <path id="Path_6" data-name="Path 6" d="M34.055,80.248a6.155,6.155,0,0,1-3.146-.87L20.885,73.242c-1.5-.863-.761-1.173-.273-1.351a21.615,21.615,0,0,0,4.719-2.324.755.755,0,0,1,.748.061l7.512,4.446a.962.962,0,0,0,.933,0l29.357-17.45a.99.99,0,0,0,.457-.84V20.446a1.011,1.011,0,0,0-.463-.857L34.531,1.68a.909.909,0,0,0-.927,0L4.279,19.6a1,1,0,0,0-.476.85V55.784a.966.966,0,0,0,.469.83l7.553,4.535c4.466,2.309,7.111-.032,7.111-2.764V23.634a.876.876,0,0,1,.869-.894h4.315a.88.88,0,0,1,.87.894v34.75c0,6.16-3.661,9.695-9.307,9.695-1.732,0-3.1,0-6.915-1.944L.9,61.447A6.6,6.6,0,0,1-2.25,55.78V19.939A6.587,6.587,0,0,1,.9,14.28L30.921-3.666a6.374,6.374,0,0,1,6.305,0L67.238,14.28a6.6,6.6,0,0,1,3.153,5.659V55.78a6.615,6.615,0,0,1-3.153,5.666L37.226,79.375a6.152,6.152,0,0,1-3.159.87Z" transform="translate(2.25 4.5)" fill="#2453f2"/>
  <path id="Path_7" data-name="Path 7" d="M24.676,39.87c-12.222,0-15.891-5.98-15.891-11.212a.878.878,0,0,1,.863-.895H13.53a.877.877,0,0,1,.863.76c.583,4.086,3.168,5.893,10.276,5.893,6.318,0,8.908-1.957,8.908-5.426,0-2-.655-3.485-10.481-4.483-8.215-.84-13.3-2.719-13.3-9.514,0-6.268,5.107-9.93,13.665-9.93,8.726,0,14.464,2.648,14.977,9.615a.947.947,0,0,1-.235.689.856.856,0,0,1-.634.289h-3.9a.87.87,0,0,1-.844-.7c-.833-3.207-3.21-4.427-9.376-4.427-6.9,0-7.708,2.412-7.708,4.277,0,2.263.952,2.921,10.271,4.194,9.224,1.26,13.608,3.049,13.608,9.752,0,6.769-5.45,11.12-14.959,11.12Z" transform="translate(20.903 20.664)" fill="#2453f2"/>
</svg>
