<svg xmlns="http://www.w3.org/2000/svg" width="1656.484" height="2249.609" viewBox="0 0 1656.484 2249.609">
  <path id="Path_9" data-name="Path 9" d="M2435,1426.717s328.773,31.973,503.935,176.318,48.7,242.906,196.709,401.062,317.18,63.345,395.333,231.563-144.222,271.9-82.72,441.311,321.029,99.272,328.727,236.346-376.56,124.393-297.935,311.952,612.436,438.283,612.436,438.283-336.386-235.965-425.8-387.56,68.133-218.819,68.133-218.819-140.379-109.167-163.459-209.105,80.984-94.261,71.14-190.646-110.517-97.134-110.517-194.894,110.517-98.72,110.517-196.146-9.962-124.264-110.517-193.557-192.867-13.889-291.7-83.617-103.633-195.3-103.633-195.3-271.532,39.9-340.98-43.038,153.1-207.656,63.188-288.7S2435,1426.717,2435,1426.717Z" transform="translate(-2435 -1413.945)" fill="#2453f2"/>
</svg>
