<svg xmlns="http://www.w3.org/2000/svg" width="79.896" height="69.871" viewBox="0 0 79.896 69.871">
  <path id="Icon_awesome-react" data-name="Icon awesome-react" d="M65.259,24.893q-1.264-.421-2.528-.8c.14-.577.265-1.154.39-1.731,1.919-9.295.655-16.765-3.6-19.229-4.1-2.355-10.8.094-17.571,5.989-.671.577-1.326,1.185-1.951,1.793-.421-.405-.858-.811-1.3-1.2C31.6,3.419,24.484.767,20.224,3.247c-4.088,2.37-5.306,9.4-3.589,18.2.172.873.359,1.731.577,2.6-1,.281-1.982.593-2.9.92C5.977,27.856,0,32.41,0,37.12c0,4.866,6.367,9.747,15.027,12.71.7.234,1.4.468,2.122.671-.234.936-.437,1.856-.624,2.807-1.638,8.655-.359,15.517,3.73,17.872,4.213,2.433,11.3-.062,18.2-6.1C39,64.6,39.542,64.1,40.088,63.57c.687.671,1.4,1.31,2.122,1.934,6.679,5.739,13.28,8.063,17.352,5.708,4.213-2.433,5.586-9.809,3.808-18.792q-.211-1.029-.468-2.105c.5-.14.983-.3,1.467-.452,9-2.979,15.527-7.8,15.527-12.741,0-4.725-6.148-9.31-14.637-12.227ZM44.145,11.653c5.8-5.053,11.22-7.033,13.685-5.614,2.637,1.513,3.651,7.626,2,15.658-.109.53-.218,1.045-.359,1.56a79.928,79.928,0,0,0-10.5-1.653,78.8,78.8,0,0,0-6.648-8.281c.609-.577,1.2-1.123,1.826-1.669ZM26.091,45.214c.8,1.357,1.607,2.714,2.466,4.039a70.7,70.7,0,0,1-7.241-1.17,72.824,72.824,0,0,1,2.544-6.94c.718,1.372,1.451,2.729,2.231,4.07ZM21.363,26.453c2.247-.5,4.635-.9,7.116-1.216-.827,1.294-1.638,2.62-2.4,3.961-.765,1.326-1.514,2.682-2.216,4.055-.983-2.324-1.81-4.6-2.5-6.8ZM25.638,37.2c1.03-2.152,2.153-4.258,3.339-6.332s2.466-4.086,3.808-6.067c2.341-.172,4.728-.265,7.163-.265s4.837.094,7.163.265q1.99,2.948,3.792,6.035t3.386,6.3Q52.72,40.364,50.918,43.5c-1.186,2.074-2.45,4.086-3.776,6.082-2.325.172-4.744.25-7.194.25s-4.822-.078-7.116-.218Q30.8,46.641,28.993,43.53c-1.2-2.074-2.309-4.18-3.355-6.332ZM53.82,45.183c.8-1.372,1.545-2.76,2.278-4.164a72.367,72.367,0,0,1,2.637,6.909A68.579,68.579,0,0,1,51.4,49.175C52.244,47.865,53.04,46.524,53.82,45.183Zm2.247-11.93c-.733-1.372-1.482-2.745-2.263-4.086q-1.147-1.988-2.388-3.93a71.848,71.848,0,0,1,7.163,1.248,68.994,68.994,0,0,1-2.512,6.768ZM39.979,15.708A68.492,68.492,0,0,1,44.6,21.291c-3.09-.14-6.2-.14-9.285,0C36.843,19.279,38.419,17.408,39.979,15.708Zm-18.1-9.56C24.5,4.619,30.32,6.8,36.452,12.23c.39.343.78.717,1.186,1.092A79.242,79.242,0,0,0,30.944,21.6a82.3,82.3,0,0,0-10.486,1.622c-.2-.8-.375-1.606-.546-2.417-1.467-7.548-.5-13.24,1.966-14.66ZM18.055,47.257c-.655-.187-1.3-.39-1.935-.608a31.834,31.834,0,0,1-9.831-4.866A7,7,0,0,1,3.355,37.12c0-2.854,4.931-6.5,12.047-8.983.889-.312,1.795-.593,2.7-.858A82.9,82.9,0,0,0,21.925,37.2,85.216,85.216,0,0,0,18.055,47.257ZM36.25,62.54a28.564,28.564,0,0,1-8.8,5.505,6.91,6.91,0,0,1-5.508.2c-2.481-1.435-3.511-6.94-2.107-14.348.172-.873.359-1.747.577-2.6a78.11,78.11,0,0,0,10.6,1.528,82.309,82.309,0,0,0,6.741,8.328C37.248,61.636,36.749,62.1,36.25,62.54Zm3.823-3.79c-1.592-1.715-3.183-3.618-4.728-5.661,1.5.062,3.043.094,4.6.094,1.607,0,3.183-.031,4.744-.109a67.261,67.261,0,0,1-4.619,5.677Zm20.4,4.679a6.93,6.93,0,0,1-2.575,4.881c-2.481,1.435-7.771-.437-13.482-5.334-.655-.561-1.311-1.17-1.982-1.793a77.154,77.154,0,0,0,6.585-8.359,76.968,76.968,0,0,0,10.642-1.638c.156.639.3,1.279.421,1.9a28.413,28.413,0,0,1,.39,10.34Zm2.84-16.765c-.437.14-.874.281-1.326.405A79.2,79.2,0,0,0,58,37.12a78.8,78.8,0,0,0,3.823-9.809c.811.234,1.592.483,2.341.733,7.272,2.5,12.374,6.207,12.374,9.045,0,3.057-5.446,7-13.233,9.576Zm-23.36-2.339A7.143,7.143,0,1,0,32.8,37.182,7.144,7.144,0,0,0,39.948,44.325Z" transform="translate(0 -2.251)" fill="#2453f2"/>
</svg>
